<svg xmlns="http://www.w3.org/2000/svg" viewBox="0 0 600 400" width="600" height="400">
  <defs>
    <linearGradient id="bgGrad6" x1="0%" y1="0%" x2="100%" y2="100%">
      <stop offset="0%" style="stop-color:#0369a1"/>
      <stop offset="100%" style="stop-color:#0d9488"/>
    </linearGradient>
    <linearGradient id="seatGrad" x1="0%" y1="0%" x2="0%" y2="100%">
      <stop offset="0%" style="stop-color:#1e293b"/>
      <stop offset="100%" style="stop-color:#0f172a"/>
    </linearGradient>
  </defs>
  
  <!-- Background -->
  <rect width="600" height="400" fill="url(#bgGrad6)"/>
  
  <!-- Car interior outline -->
  <path d="M50 320 L50 150 Q50 100 100 80 L500 80 Q550 100 550 150 L550 320 Z" fill="#374151"/>
  
  <!-- Windshield -->
  <path d="M80 150 L100 90 L500 90 L520 150 Z" fill="#38bdf8" opacity="0.4"/>
  
  <!-- Dashboard -->
  <rect x="70" y="150" width="460" height="60" rx="10" fill="#1e293b"/>
  <!-- Dashboard details -->
  <rect x="100" y="160" width="80" height="40" rx="5" fill="#0f172a"/>
  <circle cx="140" cy="180" r="15" fill="#374151"/>
  <circle cx="140" cy="180" r="10" fill="#0ea5e9"/>
  <text x="140" y="184" font-family="Arial" font-size="10" fill="white" text-anchor="middle">120</text>
  
  <!-- Infotainment screen -->
  <rect x="230" y="155" width="140" height="50" rx="5" fill="#0f172a"/>
  <rect x="235" y="160" width="130" height="40" rx="3" fill="#0ea5e9"/>
  <rect x="245" y="170" width="50" height="8" fill="#e0f2fe"/>
  <rect x="245" y="182" width="70" height="6" fill="#e0f2fe"/>
  
  <!-- AC vents -->
  <rect x="400" y="160" width="60" height="20" rx="3" fill="#475569"/>
  <line x1="410" y1="163" x2="410" y2="177" stroke="#64748b" stroke-width="2"/>
  <line x1="420" y1="163" x2="420" y2="177" stroke="#64748b" stroke-width="2"/>
  <line x1="430" y1="163" x2="430" y2="177" stroke="#64748b" stroke-width="2"/>
  <line x1="440" y1="163" x2="440" y2="177" stroke="#64748b" stroke-width="2"/>
  <line x1="450" y1="163" x2="450" y2="177" stroke="#64748b" stroke-width="2"/>
  
  <!-- Steering wheel -->
  <circle cx="150" cy="250" r="50" fill="#1e293b" stroke="#374151" stroke-width="4"/>
  <circle cx="150" cy="250" r="35" fill="none" stroke="#475569" stroke-width="8"/>
  <circle cx="150" cy="250" r="15" fill="#374151"/>
  <rect x="145" y="200" width="10" height="30" fill="#475569"/>
  <rect x="145" y="270" width="10" height="30" fill="#475569"/>
  <rect x="100" y="245" width="30" height="10" fill="#475569"/>
  <rect x="170" y="245" width="30" height="10" fill="#475569"/>
  
  <!-- Driver seat -->
  <rect x="80" y="280" width="120" height="60" rx="15" fill="url(#seatGrad)"/>
  <rect x="90" y="285" width="100" height="50" rx="10" fill="#1e293b"/>
  <!-- Seat stitching -->
  <line x1="110" y1="290" x2="110" y2="330" stroke="#475569" stroke-width="1"/>
  <line x1="140" y1="290" x2="140" y2="330" stroke="#475569" stroke-width="1"/>
  <line x1="170" y1="290" x2="170" y2="330" stroke="#475569" stroke-width="1"/>
  
  <!-- Passenger seat -->
  <rect x="400" y="280" width="120" height="60" rx="15" fill="url(#seatGrad)"/>
  <rect x="410" y="285" width="100" height="50" rx="10" fill="#1e293b"/>
  <!-- Seat stitching -->
  <line x1="430" y1="290" x2="430" y2="330" stroke="#475569" stroke-width="1"/>
  <line x1="460" y1="290" x2="460" y2="330" stroke="#475569" stroke-width="1"/>
  <line x1="490" y1="290" x2="490" y2="330" stroke="#475569" stroke-width="1"/>
  
  <!-- Center console -->
  <rect x="220" y="220" width="160" height="120" rx="10" fill="#1e293b"/>
  <rect x="230" y="230" width="140" height="30" rx="5" fill="#374151"/>
  <!-- Cup holders -->
  <circle cx="260" cy="285" r="20" fill="#0f172a"/>
  <circle cx="260" cy="285" r="15" fill="#1e293b"/>
  <circle cx="340" cy="285" r="20" fill="#0f172a"/>
  <circle cx="340" cy="285" r="15" fill="#1e293b"/>
  <!-- Gear shift -->
  <rect x="285" y="300" width="30" height="35" rx="5" fill="#475569"/>
  <ellipse cx="300" cy="308" rx="12" ry="8" fill="#64748b"/>
  
  <!-- Floor mats -->
  <rect x="85" y="335" width="110" height="20" rx="3" fill="#0f172a"/>
  <rect x="405" y="335" width="110" height="20" rx="3" fill="#0f172a"/>
  
  <!-- Cleaning vacuum -->
  <ellipse cx="480" cy="255" rx="25" ry="15" fill="#ef4444"/>
  <rect x="490" y="235" width="8" height="25" fill="#64748b"/>
  <ellipse cx="494" cy="232" rx="15" ry="8" fill="#475569"/>
  <path d="M494 232 Q520 220 540 240" stroke="#64748b" stroke-width="6" fill="none"/>
  <rect x="535" y="235" width="20" height="15" fill="#78716c"/>
  
  <!-- Cleaning cloth -->
  <path d="M350 230 Q360 225 370 230 Q365 245 355 242 Z" fill="#22c55e"/>
  
  <!-- Spray bottle -->
  <rect x="240" y="225" width="15" height="25" rx="3" fill="#06b6d4"/>
  <rect x="242" y="218" width="11" height="10" fill="#0891b2"/>
  <rect x="253" y="222" width="10" height="5" rx="1" fill="#0e7490"/>
  
  <!-- Sparkles -->
  <circle cx="140" cy="180" r="3" fill="#fef08a"/>
  <circle cx="300" cy="170" r="4" fill="#fef08a"/>
  <circle cx="450" cy="200" r="3" fill="#fef08a"/>
  <circle cx="100" cy="300" r="3" fill="#fef08a"/>
  <circle cx="480" cy="300" r="3" fill="#fef08a"/>
  <path d="M550 180 L553 175 L556 180 L553 185 Z" fill="#fef08a"/>
  <path d="M60 200 L63 195 L66 200 L63 205 Z" fill="#fef08a"/>
  
  <!-- Title Bar -->
  <rect x="0" y="360" width="600" height="40" fill="rgba(0,0,0,0.4)"/>
  <text x="300" y="388" font-family="Arial, sans-serif" font-size="22" font-weight="bold" fill="white" text-anchor="middle">Nettoyage Intérieur Voiture</text>
</svg>