<svg xmlns="http://www.w3.org/2000/svg" viewBox="0 0 600 400" width="600" height="400">
  <defs>
    <linearGradient id="bgGrad8" x1="0%" y1="0%" x2="100%" y2="100%">
      <stop offset="0%" style="stop-color:#0ea5e9"/>
      <stop offset="50%" style="stop-color:#0284c7"/>
      <stop offset="100%" style="stop-color:#06b6d4"/>
    </linearGradient>
    <linearGradient id="bucketGrad" x1="0%" y1="0%" x2="0%" y2="100%">
      <stop offset="0%" style="stop-color:#0891b2"/>
      <stop offset="100%" style="stop-color:#0e7490"/>
    </linearGradient>
  </defs>
  
  <!-- Background -->
  <rect width="600" height="400" fill="url(#bgGrad8)"/>
  
  <!-- Decorative circles -->
  <circle cx="50" cy="50" r="80" fill="white" opacity="0.05"/>
  <circle cx="550" cy="350" r="100" fill="white" opacity="0.05"/>
  <circle cx="500" cy="80" r="60" fill="white" opacity="0.05"/>
  
  <!-- Central cleaning bucket -->
  <ellipse cx="300" cy="280" rx="70" ry="25" fill="#0e7490"/>
  <rect x="230" y="180" width="140" height="100" fill="url(#bucketGrad)"/>
  <ellipse cx="300" cy="180" rx="70" ry="25" fill="#0891b2"/>
  <ellipse cx="300" cy="180" rx="60" ry="20" fill="#22d3ee"/>
  <!-- Bucket handle -->
  <path d="M240 175 Q240 130 300 130 Q360 130 360 175" stroke="#475569" stroke-width="8" fill="none"/>
  <circle cx="240" cy="175" r="6" fill="#64748b"/>
  <circle cx="360" cy="175" r="6" fill="#64748b"/>
  <!-- Soap bubbles in bucket -->
  <circle cx="280" cy="175" r="12" fill="white" opacity="0.7"/>
  <circle cx="310" cy="170" r="10" fill="white" opacity="0.6"/>
  <circle cx="330" cy="180" r="8" fill="white" opacity="0.5"/>
  <circle cx="270" cy="185" r="6" fill="white" opacity="0.5"/>
  
  <!-- Spray bottle left -->
  <rect x="100" y="180" width="50" height="90" rx="10" fill="#22c55e"/>
  <rect x="108" y="155" width="34" height="30" fill="#16a34a"/>
  <rect x="142" y="165" width="25" height="12" rx="3" fill="#15803d"/>
  <!-- Spray trigger -->
  <rect x="145" y="178" width="15" height="8" fill="#166534"/>
  <!-- Label -->
  <rect x="108" y="200" width="34" height="40" rx="3" fill="white"/>
  <circle cx="125" cy="220" r="12" fill="#22c55e"/>
  <path d="M120 218 L125 213 L130 218 L130 225 L120 225 Z" fill="white"/>
  
  <!-- Spray bottle right -->
  <rect x="450" y="180" width="50" height="90" rx="10" fill="#3b82f6"/>
  <rect x="458" y="155" width="34" height="30" fill="#2563eb"/>
  <rect x="433" y="165" width="25" height="12" rx="3" fill="#1d4ed8"/>
  <!-- Spray trigger -->
  <rect x="440" y="178" width="15" height="8" fill="#1e40af"/>
  <!-- Label -->
  <rect x="458" y="200" width="34" height="40" rx="3" fill="white"/>
  <circle cx="475" cy="220" r="12" fill="#3b82f6"/>
  <text x="475" y="225" font-family="Arial" font-size="14" fill="white" text-anchor="middle">★</text>
  
  <!-- Mop -->
  <rect x="195" y="80" width="10" height="150" fill="#a16207"/>
  <rect x="178" y="220" width="44" height="20" rx="3" fill="#78716c"/>
  <rect x="175" y="235" width="50" height="40" fill="#f5f5f4"/>
  <!-- Mop strings -->
  <line x1="185" y1="240" x2="180" y2="275" stroke="#e7e5e4" stroke-width="4"/>
  <line x1="195" y1="240" x2="193" y2="275" stroke="#e7e5e4" stroke-width="4"/>
  <line x1="205" y1="240" x2="207" y2="275" stroke="#e7e5e4" stroke-width="4"/>
  <line x1="215" y1="240" x2="220" y2="275" stroke="#e7e5e4" stroke-width="4"/>
  
  <!-- Broom -->
  <rect x="395" y="80" width="10" height="150" fill="#a16207"/>
  <path d="M375 220 L425 220 L430 280 L370 280 Z" fill="#78350f"/>
  <!-- Bristles -->
  <line x1="380" y1="280" x2="378" y2="295" stroke="#92400e" stroke-width="3"/>
  <line x1="390" y1="280" x2="388" y2="298" stroke="#92400e" stroke-width="3"/>
  <line x1="400" y1="280" x2="400" y2="300" stroke="#92400e" stroke-width="3"/>
  <line x1="410" y1="280" x2="412" y2="298" stroke="#92400e" stroke-width="3"/>
  <line x1="420" y1="280" x2="422" y2="295" stroke="#92400e" stroke-width="3"/>
  
  <!-- Cleaning cloth -->
  <path d="M520 250 Q540 240 560 250 Q555 280 540 275 Q525 280 520 250" fill="#fbbf24"/>
  <path d="M530 255 Q540 250 550 255" stroke="#f59e0b" stroke-width="2" fill="none"/>
  
  <!-- Sponge -->
  <rect x="40" y="250" width="45" height="30" rx="5" fill="#fbbf24"/>
  <rect x="42" y="252" width="41" height="26" rx="4" fill="#fcd34d"/>
  <!-- Sponge holes -->
  <circle cx="55" cy="265" r="3" fill="#f59e0b"/>
  <circle cx="68" cy="260" r="2" fill="#f59e0b"/>
  <circle cx="75" cy="270" r="3" fill="#f59e0b"/>
  <circle cx="60" cy="272" r="2" fill="#f59e0b"/>
  
  <!-- Floating sparkles and stars -->
  <path d="M150 100 L155 85 L160 100 L155 115 Z" fill="#fef08a"/>
  <path d="M450 90 L455 75 L460 90 L455 105 Z" fill="#fef08a"/>
  <path d="M300 60 L308 40 L316 60 L308 80 Z" fill="#fef08a"/>
  
  <circle cx="80" cy="150" r="5" fill="#fef08a"/>
  <circle cx="520" cy="130" r="5" fill="#fef08a"/>
  <circle cx="250" cy="100" r="4" fill="#fef08a"/>
  <circle cx="350" cy="110" r="4" fill="#fef08a"/>
  <circle cx="180" cy="320" r="4" fill="#fef08a"/>
  <circle cx="420" cy="320" r="4" fill="#fef08a"/>
  
  <!-- Small bubbles -->
  <circle cx="330" cy="150" r="8" fill="white" opacity="0.4"/>
  <circle cx="260" cy="140" r="6" fill="white" opacity="0.3"/>
  <circle cx="380" cy="135" r="7" fill="white" opacity="0.35"/>
  <circle cx="220" cy="120" r="5" fill="white" opacity="0.3"/>
  <circle cx="400" cy="100" r="6" fill="white" opacity="0.3"/>
  
  <!-- Shine effects -->
  <path d="M280 45 L285 35 L290 45 L285 55 Z" fill="white" opacity="0.6"/>
  <path d="M100 80 L103 75 L106 80 L103 85 Z" fill="white" opacity="0.6"/>
  <path d="M500 50 L503 45 L506 50 L503 55 Z" fill="white" opacity="0.6"/>
  
  <!-- Title Bar -->
  <rect x="0" y="360" width="600" height="40" fill="rgba(0,0,0,0.4)"/>
  <text x="300" y="388" font-family="Arial, sans-serif" font-size="22" font-weight="bold" fill="white" text-anchor="middle">Services de Nettoyage</text>
</svg>