<svg xmlns="http://www.w3.org/2000/svg" viewBox="0 0 600 400" width="600" height="400">
  <defs>
    <linearGradient id="bgGrad1" x1="0%" y1="0%" x2="100%" y2="100%">
      <stop offset="0%" style="stop-color:#0ea5e9"/>
      <stop offset="100%" style="stop-color:#06b6d4"/>
    </linearGradient>
    <linearGradient id="floorGrad" x1="0%" y1="0%" x2="0%" y2="100%">
      <stop offset="0%" style="stop-color:#f8fafc"/>
      <stop offset="100%" style="stop-color:#e2e8f0"/>
    </linearGradient>
  </defs>
  
  <!-- Background -->
  <rect width="600" height="400" fill="url(#bgGrad1)"/>
  
  <!-- Floor -->
  <rect x="0" y="280" width="600" height="80" fill="url(#floorGrad)"/>
  
  <!-- Window -->
  <rect x="400" y="60" width="120" height="100" rx="5" fill="#e0f2fe" stroke="#0284c7" stroke-width="3"/>
  <line x1="460" y1="60" x2="460" y2="160" stroke="#0284c7" stroke-width="2"/>
  <line x1="400" y1="110" x2="520" y2="110" stroke="#0284c7" stroke-width="2"/>
  
  <!-- Sofa -->
  <rect x="60" y="180" width="200" height="80" rx="15" fill="#1e3a5f"/>
  <rect x="50" y="200" width="30" height="60" rx="8" fill="#1e3a5f"/>
  <rect x="240" y="200" width="30" height="60" rx="8" fill="#1e3a5f"/>
  <rect x="70" y="190" width="180" height="20" rx="8" fill="#2d4a6f"/>
  <!-- Cushions -->
  <rect x="80" y="200" width="70" height="50" rx="10" fill="#38bdf8"/>
  <rect x="170" y="200" width="70" height="50" rx="10" fill="#38bdf8"/>
  
  <!-- Coffee Table -->
  <rect x="100" y="270" width="120" height="10" rx="3" fill="#78350f"/>
  <rect x="110" y="280" width="10" height="25" fill="#78350f"/>
  <rect x="200" y="280" width="10" height="25" fill="#78350f"/>
  <!-- Items on table -->
  <circle cx="140" cy="268" r="12" fill="#fef3c7"/>
  <circle cx="180" cy="268" r="8" fill="#22c55e"/>
  
  <!-- Kitchen Counter -->
  <rect x="320" y="180" width="220" height="100" rx="5" fill="#f1f5f9"/>
  <rect x="320" y="180" width="220" height="15" rx="3" fill="#94a3b8"/>
  <!-- Stove -->
  <circle cx="380" cy="220" r="20" fill="#374151" stroke="#1f2937" stroke-width="2"/>
  <circle cx="380" cy="220" r="12" fill="#4b5563"/>
  <circle cx="440" cy="220" r="20" fill="#374151" stroke="#1f2937" stroke-width="2"/>
  <circle cx="440" cy="220" r="12" fill="#4b5563"/>
  <!-- Sink -->
  <rect x="480" y="210" width="40" height="25" rx="5" fill="#64748b"/>
  <ellipse cx="500" cy="222" rx="15" ry="8" fill="#475569"/>
  <rect x="498" y="195" width="4" height="20" fill="#94a3b8"/>
  <ellipse cx="500" cy="195" rx="8" ry="4" fill="#94a3b8"/>
  
  <!-- Plant -->
  <rect x="290" y="230" width="20" height="30" rx="3" fill="#78350f"/>
  <ellipse cx="300" cy="220" rx="25" ry="30" fill="#22c55e"/>
  <ellipse cx="290" cy="210" rx="15" ry="20" fill="#16a34a"/>
  
  <!-- Cleaning Spray Bottle -->
  <rect x="510" y="140" width="25" height="40" rx="5" fill="#06b6d4"/>
  <rect x="515" y="130" width="15" height="15" fill="#0891b2"/>
  <rect x="530" y="135" width="15" height="8" rx="2" fill="#0e7490"/>
  <!-- Sparkles -->
  <path d="M545 120 L548 115 L551 120 L548 125 Z" fill="#fef08a"/>
  <path d="M560 140 L563 135 L566 140 L563 145 Z" fill="#fef08a"/>
  <path d="M535 155 L537 152 L539 155 L537 158 Z" fill="#fef08a"/>
  
  <!-- Mop -->
  <rect x="40" y="100" width="8" height="150" fill="#a16207"/>
  <rect x="25" y="240" width="38" height="20" rx="3" fill="#64748b"/>
  <rect x="22" y="255" width="44" height="25" fill="#e5e7eb"/>
  <line x1="30" y1="255" x2="30" y2="280" stroke="#d1d5db" stroke-width="2"/>
  <line x1="40" y1="255" x2="40" y2="280" stroke="#d1d5db" stroke-width="2"/>
  <line x1="50" y1="255" x2="50" y2="280" stroke="#d1d5db" stroke-width="2"/>
  <line x1="58" y1="255" x2="58" y2="280" stroke="#d1d5db" stroke-width="2"/>
  
  <!-- Sparkle effects -->
  <circle cx="150" cy="150" r="4" fill="#fef08a"/>
  <circle cx="350" cy="100" r="3" fill="#fef08a"/>
  <circle cx="250" cy="120" r="3" fill="#fef08a"/>
  <circle cx="480" cy="80" r="4" fill="#fef08a"/>
  
  <!-- Title Bar -->
  <rect x="0" y="360" width="600" height="40" fill="rgba(0,0,0,0.4)"/>
  <text x="300" y="388" font-family="Arial, sans-serif" font-size="22" font-weight="bold" fill="white" text-anchor="middle">Nettoyage Maison Premium</text>
</svg>