<svg xmlns="http://www.w3.org/2000/svg" viewBox="0 0 600 400" width="600" height="400">
  <defs>
    <linearGradient id="bgGrad5" x1="0%" y1="0%" x2="100%" y2="100%">
      <stop offset="0%" style="stop-color:#075985"/>
      <stop offset="100%" style="stop-color:#0f766e"/>
    </linearGradient>
  </defs>
  
  <!-- Background -->
  <rect width="600" height="400" fill="url(#bgGrad5)"/>
  
  <!-- Floor -->
  <rect x="0" y="300" width="600" height="60" fill="#64748b"/>
  <!-- Floor markings -->
  <rect x="0" y="300" width="600" height="5" fill="#fef08a"/>
  <rect x="200" y="305" width="5" height="55" fill="#fef08a"/>
  <rect x="400" y="305" width="5" height="55" fill="#fef08a"/>
  
  <!-- Warehouse walls -->
  <rect x="0" y="50" width="600" height="250" fill="#334155" opacity="0.3"/>
  
  <!-- Metal beams -->
  <rect x="0" y="50" width="600" height="8" fill="#475569"/>
  <rect x="50" y="50" width="8" height="250" fill="#475569"/>
  <rect x="290" y="50" width="8" height="250" fill="#475569"/>
  <rect x="542" y="50" width="8" height="250" fill="#475569"/>
  
  <!-- Roof structure -->
  <line x1="54" y1="58" x2="294" y2="58" stroke="#64748b" stroke-width="4"/>
  <line x1="298" y1="58" x2="546" y2="58" stroke="#64748b" stroke-width="4"/>
  <line x1="170" y1="58" x2="170" y2="30" stroke="#64748b" stroke-width="4"/>
  <line x1="420" y1="58" x2="420" y2="30" stroke="#64748b" stroke-width="4"/>
  
  <!-- Hanging lights -->
  <line x1="120" y1="50" x2="120" y2="80" stroke="#374151" stroke-width="2"/>
  <rect x="110" y="75" width="20" height="10" fill="#374151"/>
  <rect x="112" y="85" width="16" height="5" fill="#fef08a"/>
  
  <line x1="420" y1="50" x2="420" y2="80" stroke="#374151" stroke-width="2"/>
  <rect x="410" y="75" width="20" height="10" fill="#374151"/>
  <rect x="412" y="85" width="16" height="5" fill="#fef08a"/>
  
  <!-- Shelving unit 1 -->
  <rect x="70" y="120" width="150" height="180" fill="#78716c" stroke="#57534e" stroke-width="2"/>
  <rect x="75" y="130" width="140" height="40" fill="#a8a29e"/>
  <rect x="75" y="180" width="140" height="40" fill="#a8a29e"/>
  <rect x="75" y="230" width="140" height="40" fill="#a8a29e"/>
  <!-- Boxes -->
  <rect x="85" y="140" width="35" height="25" fill="#f97316"/>
  <rect x="130" y="135" width="30" height="30" fill="#3b82f6"/>
  <rect x="170" y="140" width="35" height="25" fill="#22c55e"/>
  <rect x="90" y="190" width="40" height="25" fill="#eab308"/>
  <rect x="140" y="185" width="35" height="30" fill="#ef4444"/>
  <rect x="85" y="240" width="45" height="25" fill="#8b5cf6"/>
  <rect x="140" y="240" width="30" height="25" fill="#06b6d4"/>
  
  <!-- Shelving unit 2 -->
  <rect x="380" y="120" width="150" height="180" fill="#78716c" stroke="#57534e" stroke-width="2"/>
  <rect x="385" y="130" width="140" height="40" fill="#a8a29e"/>
  <rect x="385" y="180" width="140" height="40" fill="#a8a29e"/>
  <rect x="385" y="230" width="140" height="40" fill="#a8a29e"/>
  <!-- Boxes -->
  <rect x="395" y="135" width="40" height="30" fill="#ec4899"/>
  <rect x="445" y="140" width="35" height="25" fill="#14b8a6"/>
  <rect x="490" y="138" width="30" height="27" fill="#f59e0b"/>
  <rect x="390" y="190" width="50" height="25" fill="#6366f1"/>
  <rect x="450" y="185" width="40" height="30" fill="#84cc16"/>
  <rect x="395" y="245" width="35" height="20" fill="#0ea5e9"/>
  <rect x="440" y="240" width="45" height="25" fill="#f43f5e"/>
  
  <!-- Forklift -->
  <rect x="250" y="230" width="80" height="50" rx="5" fill="#eab308"/>
  <rect x="255" y="210" width="30" height="25" fill="#fef08a"/>
  <rect x="260" y="215" width="20" height="15" fill="#0ea5e9" opacity="0.5"/>
  <rect x="320" y="260" width="10" height="40" fill="#374151"/>
  <rect x="310" y="250" width="30" height="15" fill="#374151"/>
  <circle cx="265" cy="285" r="12" fill="#1e293b"/>
  <circle cx="265" cy="285" r="6" fill="#475569"/>
  <circle cx="310" cy="285" r="12" fill="#1e293b"/>
  <circle cx="310" cy="285" r="6" fill="#475569"/>
  <!-- Forklift forks -->
  <rect x="330" y="265" width="40" height="5" fill="#6b7280"/>
  <rect x="330" y="278" width="40" height="5" fill="#6b7280"/>
  
  <!-- Industrial scrubber machine -->
  <rect x="480" y="260" width="60" height="40" rx="8" fill="#0284c7"/>
  <circle cx="490" cy="295" r="8" fill="#1e293b"/>
  <circle cx="530" cy="295" r="8" fill="#1e293b"/>
  <rect x="485" y="250" width="50" height="15" rx="3" fill="#0369a1"/>
  <rect x="535" y="260" width="20" height="8" rx="2" fill="#374151"/>
  <!-- Brushes -->
  <ellipse cx="500" cy="302" rx="20" ry="6" fill="#06b6d4"/>
  
  <!-- Cleaning supplies -->
  <rect x="20" y="270" width="25" height="30" rx="3" fill="#f97316"/>
  <text x="32" y="290" font-family="Arial" font-size="8" fill="white" text-anchor="middle">!</text>
  
  <!-- Mop bucket -->
  <ellipse cx="550" cy="295" rx="12" ry="6" fill="#0369a1"/>
  <rect x="538" y="278" width="24" height="18" fill="#0284c7"/>
  <ellipse cx="550" cy="278" rx="12" ry="5" fill="#0ea5e9"/>
  
  <!-- Water on floor (cleaning effect) -->
  <ellipse cx="520" cy="310" rx="30" ry="8" fill="#38bdf8" opacity="0.4"/>
  <ellipse cx="490" cy="315" rx="20" ry="5" fill="#38bdf8" opacity="0.3"/>
  
  <!-- Sparkles -->
  <circle cx="150" cy="100" r="4" fill="#fef08a"/>
  <circle cx="450" cy="95" r="4" fill="#fef08a"/>
  <circle cx="300" cy="150" r="3" fill="#fef08a"/>
  <path d="M550 230 L553 225 L556 230 L553 235 Z" fill="#fef08a"/>
  <path d="M30" y1="150" d="M30 150 L33 145 L36 150 L33 155 Z" fill="#fef08a"/>
  
  <!-- Title Bar -->
  <rect x="0" y="360" width="600" height="40" fill="rgba(0,0,0,0.4)"/>
  <text x="300" y="388" font-family="Arial, sans-serif" font-size="22" font-weight="bold" fill="white" text-anchor="middle">Nettoyage Industriel</text>
</svg>