<svg xmlns="http://www.w3.org/2000/svg" viewBox="0 0 600 400" width="600" height="400">
  <defs>
    <linearGradient id="bgGrad3" x1="0%" y1="0%" x2="100%" y2="100%">
      <stop offset="0%" style="stop-color:#0369a1"/>
      <stop offset="100%" style="stop-color:#0d9488"/>
    </linearGradient>
  </defs>
  
  <!-- Background -->
  <rect width="600" height="400" fill="url(#bgGrad3)"/>
  
  <!-- Floor -->
  <rect x="0" y="290" width="600" height="70" fill="#cbd5e1"/>
  <!-- Floor tiles -->
  <line x1="0" y1="290" x2="600" y2="290" stroke="#94a3b8" stroke-width="1"/>
  <line x1="100" y1="290" x2="100" y2="360" stroke="#94a3b8" stroke-width="1"/>
  <line x1="200" y1="290" x2="200" y2="360" stroke="#94a3b8" stroke-width="1"/>
  <line x1="300" y1="290" x2="300" y2="360" stroke="#94a3b8" stroke-width="1"/>
  <line x1="400" y1="290" x2="400" y2="360" stroke="#94a3b8" stroke-width="1"/>
  <line x1="500" y1="290" x2="500" y2="360" stroke="#94a3b8" stroke-width="1"/>
  
  <!-- Ceiling lights -->
  <rect x="100" y="20" width="100" height="10" rx="2" fill="#f1f5f9"/>
  <rect x="110" y="30" width="80" height="5" fill="#fef08a"/>
  <rect x="250" y="20" width="100" height="10" rx="2" fill="#f1f5f9"/>
  <rect x="260" y="30" width="80" height="5" fill="#fef08a"/>
  <rect x="400" y="20" width="100" height="10" rx="2" fill="#f1f5f9"/>
  <rect x="410" y="30" width="80" height="5" fill="#fef08a"/>
  
  <!-- Workstation 1 -->
  <rect x="40" y="180" width="140" height="15" rx="2" fill="#f8fafc"/>
  <rect x="50" y="195" width="15" height="95" fill="#64748b"/>
  <rect x="155" y="195" width="15" height="95" fill="#64748b"/>
  <!-- Monitor 1 -->
  <rect x="80" y="110" width="60" height="65" rx="3" fill="#1e293b"/>
  <rect x="85" y="115" width="50" height="55" fill="#22d3ee"/>
  <rect x="105" y="175" width="20" height="8" fill="#374151"/>
  <!-- Keyboard -->
  <rect x="75" y="185" width="70" height="12" rx="2" fill="#475569"/>
  
  <!-- Workstation 2 -->
  <rect x="230" y="180" width="140" height="15" rx="2" fill="#f8fafc"/>
  <rect x="240" y="195" width="15" height="95" fill="#64748b"/>
  <rect x="345" y="195" width="15" height="95" fill="#64748b"/>
  <!-- Monitor 2 -->
  <rect x="270" y="110" width="60" height="65" rx="3" fill="#1e293b"/>
  <rect x="275" y="115" width="50" height="55" fill="#22d3ee"/>
  <rect x="295" y="175" width="20" height="8" fill="#374151"/>
  <!-- Keyboard -->
  <rect x="265" y="185" width="70" height="12" rx="2" fill="#475569"/>
  
  <!-- Workstation 3 -->
  <rect x="420" y="180" width="140" height="15" rx="2" fill="#f8fafc"/>
  <rect x="430" y="195" width="15" height="95" fill="#64748b"/>
  <rect x="535" y="195" width="15" height="95" fill="#64748b"/>
  <!-- Monitor 3 -->
  <rect x="460" y="110" width="60" height="65" rx="3" fill="#1e293b"/>
  <rect x="465" y="115" width="50" height="55" fill="#22d3ee"/>
  <rect x="485" y="175" width="20" height="8" fill="#374151"/>
  <!-- Keyboard -->
  <rect x="455" y="185" width="70" height="12" rx="2" fill="#475569"/>
  
  <!-- Office chairs -->
  <ellipse cx="110" cy="285" rx="25" ry="8" fill="#1e293b"/>
  <rect x="100" y="250" width="20" height="35" fill="#374151"/>
  <ellipse cx="110" cy="245" rx="25" ry="20" fill="#0284c7"/>
  
  <ellipse cx="300" cy="285" rx="25" ry="8" fill="#1e293b"/>
  <rect x="290" y="250" width="20" height="35" fill="#374151"/>
  <ellipse cx="300" cy="245" rx="25" ry="20" fill="#0284c7"/>
  
  <ellipse cx="490" cy="285" rx="25" ry="8" fill="#1e293b"/>
  <rect x="480" y="250" width="20" height="35" fill="#374151"/>
  <ellipse cx="490" cy="245" rx="25" ry="20" fill="#0284c7"/>
  
  <!-- Dividers -->
  <rect x="195" y="100" width="5" height="120" fill="#94a3b8"/>
  <rect x="385" y="100" width="5" height="120" fill="#94a3b8"/>
  
  <!-- Plant -->
  <rect x="15" y="250" width="18" height="25" rx="3" fill="#78350f"/>
  <ellipse cx="24" cy="240" rx="20" ry="25" fill="#22c55e"/>
  <ellipse cx="20" cy="235" rx="12" ry="18" fill="#16a34a"/>
  
  <!-- Water Dispenser -->
  <rect x="560" y="180" width="30" height="90" rx="5" fill="#e2e8f0"/>
  <rect x="563" y="185" width="24" height="40" rx="3" fill="#0ea5e9" opacity="0.5"/>
  <circle cx="575" cy="250" r="6" fill="#3b82f6"/>
  
  <!-- Cleaning equipment -->
  <rect x="20" y="70" width="6" height="100" fill="#a16207"/>
  <rect x="10" y="165" width="26" height="15" fill="#64748b"/>
  <rect x="8" y="175" width="30" height="20" fill="#e5e7eb"/>
  
  <!-- Bucket -->
  <ellipse cx="50" cy="285" rx="15" ry="8" fill="#0369a1"/>
  <rect x="35" y="265" width="30" height="22" fill="#0284c7"/>
  <ellipse cx="50" cy="265" rx="15" ry="6" fill="#0ea5e9"/>
  
  <!-- Sparkles -->
  <circle cx="130" cy="80" r="4" fill="#fef08a"/>
  <circle cx="320" cy="70" r="4" fill="#fef08a"/>
  <circle cx="510" cy="85" r="3" fill="#fef08a"/>
  <circle cx="200" cy="140" r="3" fill="#fef08a"/>
  <circle cx="400" cy="130" r="3" fill="#fef08a"/>
  <path d="M550 120 L553 115 L556 120 L553 125 Z" fill="#fef08a"/>
  <path d="M70 120 L73 115 L76 120 L73 125 Z" fill="#fef08a"/>
  
  <!-- Title Bar -->
  <rect x="0" y="360" width="600" height="40" fill="rgba(0,0,0,0.4)"/>
  <text x="300" y="388" font-family="Arial, sans-serif" font-size="22" font-weight="bold" fill="white" text-anchor="middle">Open Space Professionnel</text>
</svg>